<?xml version="1.0" encoding="UTF-8"?>
<svg version="1.1" xmlns="http://www.w3.org/2000/svg" width="2096" height="662">
<path d="M0 0 C15.97399747 19.53476471 24.04514045 51.2880093 24.203125 76.0234375 C24.21018463 76.76263931 24.21724426 77.50184113 24.22451782 78.26344299 C24.45015863 108.81252363 24.45015863 108.81252363 21 122 C20.79068848 122.82419434 20.58137695 123.64838867 20.36572266 124.49755859 C17.32113823 136.28158708 13.50738539 147.69956925 9 159 C9.49588623 159.29543701 9.99177246 159.59087402 10.50268555 159.89526367 C20.08659567 165.6109625 29.64300144 171.36651942 39.125 177.25 C39.96748291 177.77190918 40.80996582 178.29381836 41.67797852 178.83154297 C46.18924117 181.62835023 50.69496985 184.43373725 55.19412231 187.24996948 C57.58182491 188.74263162 59.97294936 190.22975322 62.36468506 191.71594238 C63.532443 192.44337691 64.69868268 193.17325477 65.86334229 193.90563965 C67.49100554 194.92888287 69.12429578 195.94315872 70.7578125 196.95703125 C71.6977002 197.54460205 72.63758789 198.13217285 73.60595703 198.73754883 C75.99118819 200.23322447 75.99118819 200.23322447 79 200 C80.65398749 197.88016507 80.65398749 197.88016507 82.1875 195.125 C105.03221492 157.78176037 144.14943225 132.80378334 186.11767578 122.64672852 C198.57973825 119.79395247 210.84969718 118.61590179 223.625 118.6875 C224.32243317 118.68965515 225.01986633 118.6918103 225.73843384 118.69403076 C263.69319664 118.88132803 303.28370255 131.371323 332 157 C332.66 157.99 333.32 158.98 334 160 C330.67725589 158.94441776 327.43061331 157.79134748 324.21484375 156.44921875 C316.00122637 153.04338399 307.84883517 150.2336646 299.1875 148.1875 C298.36564209 147.99309326 297.54378418 147.79868652 296.69702148 147.59838867 C294.13810769 147.02217083 291.57516322 146.49859244 289 146 C288.03416992 145.81236084 287.06833984 145.62472168 286.07324219 145.43139648 C276.98477404 143.84338809 268.07049495 143.64131134 258.875 143.6875 C257.71614288 143.69073273 257.71614288 143.69073273 256.53387451 143.69403076 C244.79354464 143.7465473 233.4507504 144.19218216 222 147 C221.16936035 147.19867676 220.3387207 147.39735352 219.48291016 147.60205078 C206.6953496 150.74653289 194.80143707 155.18528159 183 161 C182.33774414 161.32226562 181.67548828 161.64453125 180.99316406 161.9765625 C140.99422384 181.64620627 111.55622125 217.40082756 97.25 259.3125 C84.30868604 298.60999274 85.8419771 342.19671271 103 380 C103.29245605 380.64533691 103.58491211 381.29067383 103.88623047 381.95556641 C111.76888783 399.06039039 122.28515892 414.98848411 136 428 C135.67 428.66 135.34 429.32 135 430 C126.14782106 424.53361797 117.90003993 418.80908203 110 412 C109.27039063 411.39285156 108.54078125 410.78570312 107.7890625 410.16015625 C103.02907996 406.13879169 99.00025444 401.76573523 95 397 C93.87464844 395.74123047 93.87464844 395.74123047 92.7265625 394.45703125 C65.82330574 363.69226603 51.47961592 320.57587862 54.140625 279.84765625 C55.10317751 266.70006398 57.33221787 253.8985971 60 241 C56.25100983 238.68586089 52.50087344 236.37358508 48.75 234.0625 C48.17321503 233.7070813 47.59643005 233.3516626 47.00216675 232.98547363 C40.2503176 228.8265267 33.49034495 224.68168207 26.70703125 220.57421875 C26.11314102 220.21457031 25.51925079 219.85492188 24.90736389 219.484375 C22.53563901 218.04858458 20.16366514 216.61321106 17.79067993 215.17950439 C9.30657423 210.05200199 0.88550672 204.83632887 -7.40600586 199.40136719 C-8.10862549 198.94793945 -8.81124512 198.49451172 -9.53515625 198.02734375 C-10.137229 197.63281006 -10.73930176 197.23827637 -11.35961914 196.83178711 C-13.13940927 195.77387467 -13.13940927 195.77387467 -16 196 C-17.6010737 197.45946941 -17.6010737 197.45946941 -19.125 199.4375 C-37.16960954 220.82092502 -61.45827607 235.95483002 -87.5 245.75 C-88.21003174 246.01965576 -88.92006348 246.28931152 -89.65161133 246.56713867 C-97.26421221 249.31832364 -105.13970655 251.11129901 -113 253 C-113.14487046 260.36079352 -113.28695701 267.72163728 -113.42724609 275.08251953 C-113.4751307 277.57862521 -113.52361715 280.07471943 -113.57275391 282.57080078 C-113.85076732 296.71544243 -114.08433751 310.85238326 -114 325 C-112.70143066 325.22437744 -111.40286133 325.44875488 -110.06494141 325.67993164 C-75.42466198 331.75939811 -45.08859527 347.46204606 -20 372 C-19.21496094 372.72316406 -18.42992187 373.44632812 -17.62109375 374.19140625 C4.54910217 395.09246752 18.30353205 424.65753092 25 454 C25.16371094 454.70286133 25.32742188 455.40572266 25.49609375 456.12988281 C27.89606439 466.93470933 28.28256296 477.71547294 28.3125 488.75 C28.31805908 490.02834717 28.32361816 491.30669434 28.3293457 492.6237793 C28.26201774 501.57609705 27.3721808 510.16840244 26 519 C25.67 519 25.34 519 25 519 C24.89042969 518.21689453 24.78085937 517.43378906 24.66796875 516.62695312 C21.23199809 492.70086477 15.95938374 470.27061823 4 449 C3.49629883 448.07598389 3.49629883 448.07598389 2.98242188 447.13330078 C-12.19908655 419.41336438 -35.93493359 397.27359535 -64 383 C-65.01247803 382.47647949 -65.01247803 382.47647949 -66.04541016 381.94238281 C-86.21585753 371.60711226 -109.2316131 364.7078255 -132 364 C-132.69931641 363.97421875 -133.39863281 363.9484375 -134.11914062 363.921875 C-179.87316286 362.43030133 -223.65207582 377.72363705 -257.5 408.75 C-259.34658791 410.48675143 -261.17334271 412.24211746 -263 414 C-263.6909375 414.62777344 -264.381875 415.25554687 -265.09375 415.90234375 C-287.2960359 436.69423854 -299.94001596 466.30043067 -308 495 C-308.33 495 -308.66 495 -309 495 C-310.36529631 475.18803357 -305.88055183 454.53214532 -299 436 C-298.75556152 435.33419922 -298.51112305 434.66839844 -298.25927734 433.98242188 C-289.56730267 410.63670431 -276.22984461 390.87395095 -259 373 C-258.33742188 372.28585937 -257.67484375 371.57171875 -256.9921875 370.8359375 C-231.08496174 343.62793053 -194.17891974 330.02981996 -158 324 C-157.34 301.23 -156.68 278.46 -156 255 C-160.95 254.67 -165.9 254.34 -171 254 C-174.17065746 253.51583539 -177.20006847 253.01163363 -180.3125 252.3125 C-181.50504395 252.0486853 -181.50504395 252.0486853 -182.72167969 251.77954102 C-204.0528082 246.86848938 -225.45581586 238.24611037 -243 225 C-244.06476563 224.22785156 -245.12953125 223.45570313 -246.2265625 222.66015625 C-268.06002692 206.47660687 -290.32323561 182.41829253 -299 156 C-298.505 155.01 -298.505 155.01 -298 154 C-297.28714844 154.845625 -296.57429688 155.69125 -295.83984375 156.5625 C-293.3573643 159.50498746 -290.86793061 162.4415109 -288.37597656 165.37597656 C-287.24332519 166.71281065 -286.11689604 168.05491407 -284.9921875 169.3984375 C-281.01573587 174.07770384 -276.75946589 178.12250525 -272 182 C-271.05253906 182.7734375 -270.10507812 183.546875 -269.12890625 184.34375 C-249.70832974 199.89113869 -227.14294814 211.0490081 -203 217 C-202.20207031 217.20882812 -201.40414062 217.41765625 -200.58203125 217.6328125 C-160.92443268 227.72282953 -116.47567926 220.64955768 -81 201 C-79.79081497 200.35592456 -78.58118051 199.71269216 -77.37109375 199.0703125 C-64.0394842 191.86477381 -52.91774484 182.39785222 -42 172 C-41.28199219 171.33484375 -40.56398438 170.6696875 -39.82421875 169.984375 C-10.72550763 142.22688703 6.1767824 98.83128661 7.203125 59.0390625 C7.42500314 40.70567019 5.56236262 23.77126287 0.76953125 6.08984375 C0 3 0 3 0 0 Z " fill="#42AEDA" transform="translate(309,6)"/>
<path d="M0 0 C8.41419751 -0.41913377 16.82397234 -0.7378176 25.24606037 -0.93261909 C29.15845611 -1.02618337 33.06366767 -1.1526828 36.97192383 -1.35791016 C62.17748049 -2.64732996 62.17748049 -2.64732996 68.4414978 1.69088745 C72.21251738 5.82587889 74.22031781 10.4317577 76.05397034 15.66107178 C77.65368283 19.61614089 80.15775721 22.90457316 82.6875 26.3125 C83.50456421 27.46903076 83.50456421 27.46903076 84.33813477 28.64892578 C89.19272337 35.3173071 94.19507366 41.87083594 99.2175293 48.41333008 C102.90087592 53.21706286 106.52192604 58.04572333 110 63 C114.17963904 68.95251911 118.57509915 74.72803524 123 80.5 C127.42489443 86.27195639 131.82053028 92.04736726 136 98 C140.96665604 105.05163452 146.2065212 111.88570664 151.46875 118.71875 C152.12617187 119.5746875 152.78359375 120.430625 153.4609375 121.3125 C154.33951416 122.45138672 154.33951416 122.45138672 155.23583984 123.61328125 C157.25635711 126.34682357 159.12213059 129.16707768 161 132 C161.07038762 118.02999279 161.12293272 104.06001348 161.15543652 90.08986473 C161.17104256 83.60183912 161.19218794 77.11393327 161.22631836 70.62597656 C161.2590928 64.35601257 161.27689102 58.08616324 161.28463173 51.81612015 C161.2901429 49.43292055 161.30090422 47.0497267 161.31719017 44.66657639 C161.42348176 28.45711327 160.16416107 15.4924832 155 0 C174.14 0 193.28 0 213 0 C212.01 3.3 211.02 6.6 210 10 C207.50397544 19.97247509 206.56611635 29.46591452 206.62768555 39.72436523 C206.62524842 41.12604542 206.62152027 42.52772384 206.61662292 43.92939758 C206.60732815 47.69042689 206.61654603 51.45119064 206.62995505 55.21219897 C206.64141783 59.18875246 206.63715024 63.16529565 206.63520813 67.14186096 C206.63432885 73.82500443 206.64532066 80.50804579 206.66381836 87.19116211 C206.68490202 94.85102197 206.68851024 102.51073167 206.6822564 110.17061466 C206.6764997 117.60991304 206.68228658 125.04916003 206.69342995 132.488451 C206.69800147 135.61976156 206.69898285 138.75103991 206.6968441 141.88235283 C206.68779671 164.52638282 207.79039792 186.53278543 211 209 C194.17 209 177.34 209 160 209 C157.36 203.72 154.72 198.44 152 193 C149.84818692 189.47634339 147.70841804 186.07702793 145.375 182.6875 C144.78017822 181.80924561 144.18535645 180.93099121 143.57250977 180.02612305 C137.83482325 171.6205518 131.791126 163.44831809 125.70263672 155.29541016 C122.9302222 151.55777876 120.21572295 147.77891714 117.5 144 C112.46419206 137.00254694 107.36581862 130.05364465 102.24145508 123.12084961 C97.68104142 116.94355624 93.17353656 110.72961016 88.70117188 104.48828125 C85.61652675 100.19517621 82.47414195 95.94826645 79.2980957 91.72241211 C78.88341286 91.17010674 78.46873001 90.61780136 78.04148102 90.04875946 C77.02794969 88.69895091 76.01401614 87.34944438 75 86 C74.9534073 97.71896165 74.91799512 109.43790081 74.89637566 121.15693665 C74.885993 126.60010072 74.87193611 132.04320084 74.84912109 137.48632812 C74.82719403 142.75129819 74.81539002 148.01620723 74.81024551 153.28121948 C74.80658507 155.27758747 74.7994386 157.27395259 74.78853989 159.27029419 C74.70372691 175.46801201 75.13003691 190.67710933 81 206 C81.33 206.99 81.66 207.98 82 209 C62.53 209 43.06 209 23 209 C24.65 204.38 26.3 199.76 28 195 C30.14609965 185.26062674 30.329701 175.25602422 30.43334961 165.31640625 C30.4541447 163.91982137 30.47555162 162.52324549 30.49751282 161.12667847 C30.56443763 156.60541133 30.61077641 152.08406347 30.65234375 147.5625 C30.65958694 146.78760853 30.66683012 146.01271706 30.6742928 145.21434402 C30.74137237 137.88277821 30.79937745 130.55118116 30.83782101 123.21940613 C30.88732729 113.91216544 30.98032296 104.60758234 31.13173288 95.30142689 C31.23519862 88.71498046 31.28804584 82.12924919 31.3044911 75.54201794 C31.31562477 71.62524356 31.34805079 67.71155862 31.43562126 63.79568481 C32.49814196 43.9470158 32.49814196 43.9470158 23.82250977 26.94140625 C22.17252524 25.38048268 20.48748165 23.91868666 18.72242928 22.48965454 C15.63094295 19.81596181 13.10989741 16.63277924 10.5 13.5 C9.55367308 12.40487424 8.60601118 11.3108987 7.65625 10.21875 C5.7659289 7.98417026 4.02442739 5.6880819 2.33398438 3.29882812 C1.89389038 2.67818481 1.45379639 2.0575415 1.00036621 1.41809082 C0.67024536 0.95012085 0.34012451 0.48215088 0 0 Z " fill="#000000" transform="translate(1706,449)"/>
<path d="M0 0 C20.51157649 18.03812168 32.28879762 41.25022119 35.65625 68.3359375 C37.25571586 101.95137833 32.15171671 131.03768141 9.24072266 156.93603516 C-8.94996073 176.84154051 -35.03620555 190.07671848 -62.13964844 191.54101562 C-65.58314844 191.64355161 -69.02438443 191.66231456 -72.46923828 191.65161133 C-74.57768064 191.64846151 -76.68469939 191.67197425 -78.79296875 191.69726562 C-91.93578676 191.76009273 -104.64982731 189.92329952 -116.96875 185.1484375 C-117.7623291 184.84583008 -118.5559082 184.54322266 -119.37353516 184.23144531 C-132.41456635 179.09701554 -143.06376552 171.74426784 -153.34375 162.3359375 C-154.10558594 161.645 -154.86742187 160.9540625 -155.65234375 160.2421875 C-160.98993064 155.16471693 -165.21655932 149.41902021 -169.34375 143.3359375 C-169.86839844 142.59085938 -170.39304687 141.84578125 -170.93359375 141.078125 C-185.70958694 118.58098947 -188.98222565 87.6503185 -184.21875 61.6484375 C-177.68942677 32.77227561 -160.29129926 9.12139268 -135.34375 -6.6640625 C-94.49023292 -31.98658219 -37.23954727 -31.48624643 0 0 Z M-120.34375 27.3359375 C-134.3274264 43.98317131 -138.63678362 65.10515971 -137.34375 86.3359375 C-135.38113571 106.83581692 -128.02832848 124.62720676 -113.34375 139.3359375 C-112.168125 140.52896484 -112.168125 140.52896484 -110.96875 141.74609375 C-98.57971527 153.63877293 -82.8522945 158.72137619 -65.9140625 158.48828125 C-53.65071161 157.76142611 -43.5142796 153.40943178 -34.34375 145.3359375 C-33.72628906 144.80097656 -33.10882812 144.26601563 -32.47265625 143.71484375 C-19.1751328 131.36502798 -12.85622634 113.0549708 -12.05859375 95.2734375 C-11.4083094 69.91002555 -18.25922511 46.54614787 -35.88378906 27.79150391 C-48.67606741 15.03773075 -65.5598736 9.33338478 -83.3359375 9.27001953 C-98.27331427 9.76042465 -110.25725562 16.69675849 -120.34375 27.3359375 Z " fill="#000000" transform="translate(1251.34375,469.6640625)"/>
<path d="M0 0 C18.67825476 15.82965245 29.43252396 38.47869614 33.48876953 62.26171875 C33.67310547 63.29425781 33.85744141 64.32679688 34.04736328 65.390625 C37.52304952 95.87208576 31.59719388 126.34731064 12.33276367 150.69311523 C-3.53593742 170.09553958 -24.14447491 182.63841153 -48.51123047 188.26171875 C-49.30263428 188.44718262 -50.09403809 188.63264648 -50.90942383 188.82373047 C-59.04986519 190.52607815 -67.1670191 190.66003557 -75.44873047 190.63671875 C-76.17533875 190.63617493 -76.90194702 190.6356311 -77.65057373 190.6350708 C-109.61592069 190.52529064 -136.70267001 179.69043905 -159.42260742 156.84008789 C-178.53629298 136.85844558 -186.96537334 111.00070982 -186.88623047 83.69921875 C-186.88568665 82.99306427 -186.88514282 82.28690979 -186.88458252 81.55935669 C-186.84506282 70.3874544 -186.08338393 59.91248437 -182.51123047 49.26171875 C-182.30224121 48.61541504 -182.09325195 47.96911133 -181.87792969 47.30322266 C-177.0993152 32.93874329 -169.0284461 21.08352155 -158.51123047 10.26171875 C-157.76486328 9.441875 -157.01849609 8.62203125 -156.24951172 7.77734375 C-142.44207688 -6.92015713 -123.03550111 -17.06059141 -103.51123047 -21.73828125 C-102.27373047 -22.03605469 -101.03623047 -22.33382813 -99.76123047 -22.640625 C-63.77670192 -30.32116828 -28.22760785 -23.55186913 0 0 Z M-120.51123047 25.26171875 C-136.18990324 42.17319039 -139.24428058 63.3453147 -138.64306641 85.5234375 C-137.626194 106.64425395 -128.24385578 126.20665629 -113.09277344 140.85253906 C-100.52846388 152.04753671 -84.18834534 157.91451213 -67.39404297 157.5078125 C-52.43752186 156.23103631 -40.7824316 150.09572542 -30.51123047 139.26171875 C-15.84534637 121.80233292 -12.06427697 99.88607735 -13.78466797 77.7421875 C-15.98429695 59.58487278 -22.39431121 44.05843273 -34.51123047 30.26171875 C-35.17767578 29.48828125 -35.84412109 28.71484375 -36.53076172 27.91796875 C-47.95966077 15.53489445 -63.80221979 9.11236392 -80.48583984 8.21459961 C-96.75382517 7.80946571 -109.35233453 13.82008052 -120.51123047 25.26171875 Z " fill="#000000" transform="translate(1665.51123046875,470.73828125)"/>
<path d="M0 0 C10.39782622 -0.06999997 20.79559492 -0.12306212 31.19361019 -0.15543652 C36.02360896 -0.170987 40.85344465 -0.1920272 45.68334961 -0.22631836 C50.35830311 -0.25929567 55.03310133 -0.27693246 59.70816231 -0.28463173 C61.4776408 -0.2901073 63.24711234 -0.30079587 65.01652336 -0.31719017 C79.78754833 -0.44840795 94.15013123 0.779643 108.1875 5.75 C108.92887207 6.00676514 109.67024414 6.26353027 110.43408203 6.52807617 C136.59117088 15.86989362 157.5027657 34.22430137 170 59 C182.29877946 85.89759041 182.24025888 118.47034482 172 146 C168.00610375 155.72340616 163.02610759 164.14255907 156 172 C155.32453125 172.81726563 154.6490625 173.63453125 153.953125 174.4765625 C136.30202986 195.28424035 110.68532178 205.93125174 84 209 C77.32982014 209.46023534 70.64633195 209.35332599 63.96484375 209.29296875 C62.10584358 209.28735547 60.24683889 209.2830936 58.38783264 209.28010559 C53.55625592 209.26879289 48.72496101 209.23944714 43.89349365 209.20599365 C38.93880014 209.17499549 33.98405994 209.16153748 29.02929688 209.14648438 C19.35274252 209.11456073 9.67639493 209.06353443 0 209 C0.27263672 208.195625 0.27263672 208.195625 0.55078125 207.375 C4.83874355 194.00535345 6.45267526 181.062295 6.37231445 167.06958008 C6.37475114 165.55138399 6.37847887 164.03318953 6.38337708 162.51499939 C6.39266757 158.44486761 6.3834633 154.37498131 6.37004495 150.30486894 C6.35860379 146.01620915 6.36284747 141.72755924 6.36479187 137.43888855 C6.3656706 130.24478211 6.35468074 123.05077066 6.33618164 115.85668945 C6.31499634 107.57118417 6.31151187 99.28581759 6.3177436 91.00029069 C6.32346135 82.98376903 6.31776484 74.96729558 6.30657005 66.95078087 C6.30195836 63.55918156 6.30103516 60.16761207 6.3031559 56.77601051 C6.30505607 52.77606051 6.29680384 48.77624931 6.2810955 44.77633095 C6.27689692 43.31919428 6.27597176 41.86204341 6.27878571 40.40490341 C6.29719629 29.15526606 5.80077505 17.97025226 1.875 7.3125 C0 2.1459854 0 2.1459854 0 0 Z M52 31 C52 79.51 52 128.02 52 178 C74.2926885 178 92.44877923 176.98016323 108.76171875 161.265625 C109.50035156 160.51796875 110.23898437 159.7703125 111 159 C111.62519531 158.39671875 112.25039062 157.7934375 112.89453125 157.171875 C126.74807801 142.7867023 131.35319931 122.39947238 131 103 C130.14476889 81.64837778 123.24801588 63.30133062 108 48 C107.38640625 47.36320312 106.7728125 46.72640625 106.140625 46.0703125 C90.85721234 31.37472341 72.34265793 31 52 31 Z " fill="#000000" transform="translate(1251,212)"/>
<path d="M0 0 C9.37205346 -0.04668665 18.74406585 -0.08205137 28.11621094 -0.10362434 C32.46976885 -0.11398703 36.82324623 -0.12800582 41.17675781 -0.15087891 C45.39134493 -0.17287926 49.60585542 -0.18462484 53.82049561 -0.18975449 C55.41494958 -0.19340214 57.00940017 -0.20052212 58.6038208 -0.21146011 C83.47964097 -0.37506256 108.11387146 3.01354224 126.90625 20.8046875 C139.41243701 34.02394658 141.70520104 50.41138372 141.28515625 67.83203125 C141.03933202 73.57238696 140.23054264 78.6810137 138 84 C137.67128906 84.83144531 137.34257813 85.66289062 137.00390625 86.51953125 C130.34575488 101.51765077 116.71011128 110.7996985 102 117 C100.34450469 117.38499891 98.67919537 117.73695665 97 118 C112.34825666 139.84706803 127.83386302 161.52472818 145 182 C145.45584473 182.5460791 145.91168945 183.0921582 146.38134766 183.65478516 C157.10694689 196.98333554 157.10694689 196.98333554 170 208 C170 208.66 170 209.32 170 210 C163.97212382 210.27453541 157.94797705 210.47269696 151.9152832 210.60424805 C149.86939027 210.65914218 147.82392029 210.73389314 145.77954102 210.82983398 C126.09274111 211.72971948 126.09274111 211.72971948 118.4453125 204.7890625 C116.55026864 202.91833257 114.78820317 200.97871391 113 199 C111.05829208 197.18287567 109.06309623 195.44080031 107.0625 193.6875 C97.55256842 184.97733761 88.28997651 175.88491606 80 166 C78.81083984 164.64455078 78.81083984 164.64455078 77.59765625 163.26171875 C68.5458728 152.88253901 60.05653046 141.83941174 53 130 C52.92330659 137.71884727 52.87113258 145.43759459 52.83520508 153.15673828 C52.82021156 155.77721834 52.79980998 158.39767371 52.77368164 161.01806641 C52.7368809 164.80637748 52.72017858 168.59435393 52.70703125 172.3828125 C52.68380547 174.11182297 52.68380547 174.11182297 52.66011047 175.87576294 C52.65767258 187.92686814 55.54488575 198.4829525 59 210 C39.53 210 20.06 210 0 210 C1.04154224 204.7922888 2.51504237 199.84037575 4.0625 194.765625 C6.33298847 185.64582965 6.15432088 176.45140618 6.16113281 167.11132812 C6.16576983 165.6203601 6.17079566 164.12939325 6.17617798 162.63842773 C6.18922155 158.60902253 6.19573147 154.57963394 6.20018864 150.55021095 C6.20313328 148.02414864 6.20724068 145.49809072 6.21169281 142.97203064 C6.22534847 135.04361129 6.23502375 127.11520216 6.2388947 119.18677187 C6.24336655 110.0813851 6.26088193 100.9761491 6.2898953 91.87080812 C6.31162538 84.80205122 6.32160503 77.73333638 6.32293582 70.66454649 C6.32397606 66.457137 6.32971476 62.24986959 6.34775543 58.04249573 C6.3644328 54.07626031 6.36629817 50.11027079 6.35761642 46.14401245 C6.35685635 44.70306227 6.36104937 43.26209776 6.37107468 41.82118225 C6.4216615 34.085361 5.97492391 26.62042498 4.66522217 19.00476074 C4.54889537 18.32238232 4.43256857 17.6400039 4.31271672 16.93694735 C3.63991344 13.36426511 2.71233543 10.0792307 1.39592361 6.68720245 C0 3 0 3 0 0 Z M52 32 C52 53.12 52 74.24 52 96 C64.55723229 96 75.39055773 93.37347258 84.8125 84.75 C91.57468971 77.57988237 93.38981674 68.72270449 93.2734375 59.16796875 C92.61442296 51.53281462 89.58361787 45.5704034 83.8984375 40.4609375 C74.59942397 33.30490651 63.43835076 32 52 32 Z " fill="#000000" transform="translate(845,211)"/>
<path d="M0 0 C11.88 0 23.76 0 36 0 C37.47339844 4.35251953 37.47339844 4.35251953 38.9765625 8.79296875 C42.58392947 19.21690106 46.86428829 29.25397421 51.375 39.3125 C52.16690509 41.09465711 52.95789978 42.87721901 53.74804688 44.66015625 C54.96503329 47.40577839 56.18261747 50.15111859 57.40313721 52.89517212 C61.13221193 61.27937168 64.80184579 69.68881358 68.45892334 78.10461426 C75.0677932 93.31078807 81.72136853 108.49713472 88.39874268 123.67333984 C92.16217933 132.22684332 95.92012975 140.78191271 99.6015625 149.37109375 C104.68448142 161.22663631 109.83958841 173.03436895 115.375 184.6875 C115.83890137 185.67298828 116.30280273 186.65847656 116.78076172 187.67382812 C119.65523327 193.63827963 122.90452695 199.18290456 126.56884766 204.69848633 C128 207 128 207 129 210 C109.86 210 90.72 210 71 210 C70.01 202.08 70.01 202.08 69 194 C68.0599184 190.45309751 67.11378301 187.17071844 65.875 183.75 C65.57585693 182.88592529 65.27671387 182.02185059 64.96850586 181.1315918 C62.36891668 173.74078655 59.48475315 166.4584555 56.48974609 159.21972656 C56.16441895 158.43178711 55.8390918 157.64384766 55.50390625 156.83203125 C55.21330322 156.13827393 54.9227002 155.4445166 54.62329102 154.72973633 C54 153 54 153 54 151 C28.26 151 2.52 151 -24 151 C-24.33 152.65 -24.66 154.3 -25 156 C-25.75594894 157.98458042 -26.56003027 159.95116678 -27.3984375 161.90234375 C-27.87796875 163.04123047 -28.3575 164.18011719 -28.8515625 165.35351562 C-29.85333831 167.71025743 -30.8609885 170.0645124 -31.875 172.41601562 C-37.32562792 185.42319588 -39 195.73105855 -39 210 C-56.16 210 -73.32 210 -91 210 C-89.76710994 206.91777485 -88.68660263 204.26738827 -87.11499023 201.42578125 C-86.57697533 200.43916504 -86.57697533 200.43916504 -86.02809143 199.43261719 C-85.45537758 198.38315918 -85.45537758 198.38315918 -84.87109375 197.3125 C-80.09270238 188.41156428 -76.02737574 179.28517858 -72.0625 170 C-71.33512445 168.31157919 -70.60691313 166.62351823 -69.87792969 164.93579102 C-68.74064918 162.30269013 -67.60381001 159.66941083 -66.4694519 157.03504944 C-62.65736549 148.18478675 -58.78036813 139.36346826 -54.8973999 130.54412842 C-48.85817025 116.82438903 -42.85261794 103.09085386 -36.90576172 89.33081055 C-33.52347315 81.5068171 -30.12174692 73.69156643 -26.70846558 65.88104248 C-22.79503187 56.92530203 -18.89306842 47.96461124 -15 39 C-14.55312836 37.97187195 -14.55312836 37.97187195 -14.097229 36.92297363 C-12.28233908 32.74526361 -10.48094058 28.56197721 -8.6875 24.375 C-8.04917236 22.90401855 -8.04917236 22.90401855 -7.39794922 21.40332031 C-4.38069419 14.31184923 -2.29890765 7.47144985 0 0 Z M16 56 C13.88205946 60.98891795 11.76850802 65.97966801 9.65844727 70.97192383 C8.94503773 72.65826569 8.23057402 74.34416209 7.51489258 76.02954102 C1.75436035 89.59834237 -3.62498944 103.2638619 -9 117 C7.5 117 24 117 41 117 C35.50586713 102.39717317 29.98966124 87.80815398 24.22961426 73.3081665 C23.70220475 71.97940178 23.17656456 70.64993341 22.65270996 69.31976318 C21.91832894 67.45716112 21.17614007 65.59764321 20.43359375 63.73828125 C19.80022095 62.14560425 19.80022095 62.14560425 19.15405273 60.52075195 C18.13049542 57.89810635 18.13049542 57.89810635 16 56 Z " fill="#000000" transform="translate(707,211)"/>
<path d="M0 0 C11.88 0 23.76 0 36 0 C37.485 3.96 37.485 3.96 39 8 C43.78904744 20.40533579 48.93439061 32.64306993 54.32302856 44.79840088 C55.88669033 48.32581355 57.44243216 51.85670459 58.99882507 55.3873291 C59.80697288 57.22042079 60.61549552 59.05334727 61.4243927 60.8861084 C65.49882129 70.12005876 69.53372766 79.37105975 73.5625 88.625 C74.26469406 90.23699474 74.96692392 91.84897389 75.66918945 93.4609375 C78.49835913 99.95565651 81.32597005 106.4510536 84.15283203 112.94677734 C88.75051298 123.51114082 93.35368774 134.07308273 97.96563721 144.63122559 C99.0023865 147.00546528 100.03811809 149.38014703 101.07373047 151.75488281 C102.74910827 155.59526052 104.42925926 159.43351946 106.11273193 163.27035522 C106.72976478 164.67827738 107.34544302 166.08679427 107.95953369 167.4960022 C111.20763578 174.94651744 114.57725321 182.32065981 118.18359375 189.60546875 C118.50481705 190.25938095 118.82604034 190.91329315 119.15699768 191.58702087 C121.59409747 196.44530454 124.45909509 200.84568326 127.75 205.1796875 C129 207 129 207 129 209 C109.86 209 90.72 209 71 209 C70.34 203.39 69.68 197.78 69 192 C68.06592057 188.55400425 67.15433054 185.47091944 65.875 182.1875 C65.48828125 181.12305664 65.48828125 181.12305664 65.09375 180.03710938 C61.61699756 170.61957583 57.71958955 161.29897388 54 152 C28.26 151.67 2.52 151.34 -24 151 C-24.33 152.65 -24.66 154.3 -25 156 C-25.77079511 158.13740053 -26.58652951 160.25884969 -27.43359375 162.3671875 C-27.91763672 163.58277344 -28.40167969 164.79835938 -28.90039062 166.05078125 C-29.41234654 167.32568711 -29.92471965 168.60042551 -30.4375 169.875 C-31.44023754 172.37083002 -32.43806665 174.86845415 -33.43359375 177.3671875 C-33.87759521 178.47175293 -34.32159668 179.57631836 -34.77905273 180.71435547 C-36.87497316 186.35460684 -38.23795619 191.61865347 -38.625 197.625 C-38.69976563 198.71039063 -38.77453125 199.79578125 -38.8515625 200.9140625 C-38.98108254 203.60671588 -39 206.30423338 -39 209 C-56.16 209 -73.32 209 -91 209 C-88.03 203.555 -88.03 203.555 -85 198 C-83.24936326 194.40874052 -81.53918006 190.81791814 -79.875 187.1875 C-79.37693848 186.10476807 -78.87887695 185.02203613 -78.36572266 183.90649414 C-70.96240081 167.68086213 -63.9535954 151.27807931 -56.86763 134.91227722 C-52.46837129 124.7590913 -48.01849463 114.6283819 -43.5625 104.5 C-37.43271646 90.55981874 -31.33311662 76.6076636 -25.30078125 62.625 C-23.19471517 57.74656386 -21.07083895 52.87651774 -18.9319458 48.01239014 C-17.49020435 44.73121646 -16.05469383 41.44733295 -14.61968994 38.16320801 C-13.93104287 36.59125905 -13.23972801 35.02047526 -12.54534912 33.4510498 C-7.68789409 22.4678591 -3.66505572 11.44267784 0 0 Z M16 55 C15.59797363 55.99515625 15.19594727 56.9903125 14.78173828 58.015625 C12.89775754 62.67773055 11.01173734 67.33900942 9.125 72 C8.78596649 72.83768921 8.44693298 73.67537842 8.09762573 74.53845215 C3.40008754 86.14005559 -1.33990613 97.72113777 -6.20458984 109.25390625 C-6.57922363 110.14464844 -6.95385742 111.03539062 -7.33984375 111.953125 C-7.66331787 112.71786133 -7.98679199 113.48259766 -8.32006836 114.27050781 C-9.06098 115.84538599 -9.06098 115.84538599 -9 117 C7.5 117 24 117 41 117 C38.58626914 109.72388988 38.58626914 109.72388988 35.96289062 102.54370117 C35.59240601 101.57627487 35.22192139 100.60884857 34.84020996 99.61210632 C34.44950317 98.59929092 34.05879639 97.58647552 33.65625 96.54296875 C33.24588501 95.47758377 32.83552002 94.41219879 32.41271973 93.31452942 C31.54992872 91.07780095 30.6859367 88.84153542 29.82080078 86.60571289 C28.49818304 83.18279773 27.18459265 79.75650108 25.87109375 76.33007812 C25.02920033 74.15082737 24.18677109 71.97178352 23.34375 69.79296875 C22.95304321 68.7700322 22.56233643 67.74709564 22.15979004 66.69316101 C21.78930542 65.74149551 21.4188208 64.78983002 21.03710938 63.80932617 C20.55437561 62.557649 20.55437561 62.557649 20.06188965 61.28068542 C18.9590861 58.91212672 17.63785773 57.02771376 16 55 Z " fill="#000000" transform="translate(1520,212)"/>
<path d="M0 0 C11.88 0 23.76 0 36 0 C36.82242187 2.58328125 37.64484375 5.1665625 38.4921875 7.828125 C41.46608451 16.88588751 45.09605861 25.55696039 49.00048828 34.24707031 C50.58132135 37.76567662 52.14334272 41.29255565 53.70721436 44.81872559 C54.53670109 46.68837273 55.36715503 48.55759105 56.19854736 50.4263916 C60.43842001 59.96144507 64.59530403 69.53198153 68.74551392 79.10632324 C75.97369136 95.77929342 83.24783409 112.43157325 90.56610107 129.06518555 C94.89903032 138.9135929 99.20827794 148.77120709 103.46606445 158.65234375 C113.44383392 182.25977991 113.44383392 182.25977991 126.3125 204.33984375 C128 207 128 207 128 209 C108.86 209 89.72 209 70 209 C69.67 204.38 69.34 199.76 69 195 C68.2529202 191.0858172 68.2529202 191.0858172 67.0625 187.6875 C66.85794189 187.06141846 66.65338379 186.43533691 66.44262695 185.7902832 C63.75622254 177.84530534 60.50755029 170.08726536 57.30297852 162.34057617 C56.87686279 161.30392822 56.45074707 160.26728027 56.01171875 159.19921875 C55.62459717 158.26940186 55.23747559 157.33958496 54.83862305 156.3815918 C54 154 54 154 54 151 C28.26 151.33 2.52 151.66 -24 152 C-35.90401966 180.48471002 -35.90401966 180.48471002 -40 209 C-57.16 209 -74.32 209 -92 209 C-89.36 204.38 -86.72 199.76 -84 195 C-81.86559886 190.51538896 -79.80031169 186.04666168 -77.8125 181.5 C-77.25337775 180.23576832 -76.69371119 178.97177725 -76.13354492 177.70800781 C-71.49909307 167.22917383 -66.95346632 156.71100458 -62.41337585 146.19104004 C-57.98756971 135.94076155 -53.49468273 125.72022388 -49 115.5 C-43.2895064 102.51296196 -37.60402887 89.51629138 -31.98583984 76.48901367 C-28.84219035 69.21186459 -25.657606 61.95415486 -22.4453125 54.70703125 C-21.63987147 52.88611304 -20.83453338 51.06514929 -20.02929688 49.24414062 C-18.84829283 46.57337174 -17.66557818 43.90345823 -16.47583008 41.23657227 C-11.44893003 29.9678742 -6.85131056 18.63073905 -2.73275757 6.99736023 C-1.87033045 4.64654502 -0.92996942 2.32492356 0 0 Z M15 56 C14.55720703 57.08192627 14.11441406 58.16385254 13.65820312 59.27856445 C11.97426155 63.39239964 10.28905522 67.50571582 8.60351562 71.61889648 C7.88183018 73.38047955 7.16046289 75.14219301 6.43945312 76.90405273 C5.38761075 79.47416199 4.33461666 82.04379638 3.28125 84.61328125 C2.93231689 85.4656839 2.58338379 86.31808655 2.22387695 87.19631958 C0.40786357 91.62022112 -1.43322656 96.03147804 -3.31640625 100.42724609 C-3.6880188 101.29721725 -4.05963135 102.16718842 -4.44250488 103.06352234 C-5.15284454 104.72198705 -5.86772704 106.37851551 -6.58776855 108.03279114 C-8.46393787 112.36010392 -8.46393787 112.36010392 -9 117 C7.17 117 23.34 117 40 117 C39.28454436 113.42272178 38.60131144 110.67979104 37.29760742 107.3684082 C36.95022018 106.48010818 36.60283295 105.59180817 36.24491882 104.67658997 C35.8689003 103.72757309 35.49288177 102.77855621 35.10546875 101.80078125 C34.71684158 100.81055466 34.32821442 99.82032806 33.92781067 98.8000946 C32.68492601 95.63601899 31.4362658 92.47425848 30.1875 89.3125 C29.35834986 87.20392311 28.52956985 85.09520063 27.70117188 82.98632812 C24.16046213 73.98025708 20.60187495 64.98180232 17 56 C16.34 56 15.68 56 15 56 Z " fill="#000000" transform="translate(1113,212)"/>
<path d="M0 0 C44.22 0 88.44 0 134 0 C132.74831554 3.75505338 131.69871544 6.85365194 129.96875 10.29296875 C129.56914063 11.09025391 129.16953125 11.88753906 128.7578125 12.70898438 C128.34273437 13.52689453 127.92765625 14.34480469 127.5 15.1875 C127.11585938 15.95513672 126.73171875 16.72277344 126.3359375 17.51367188 C123.82673326 22.49657276 121.24326694 27.4374983 118.63085938 32.36677551 C112.39169412 44.14852154 106.42876026 56.05967005 100.5 68 C94.70745683 79.66599317 88.88250969 91.30160487 82.77563477 102.80664062 C77.50080266 112.7784411 72.51664158 122.89664736 67.5 133 C61.16222809 145.76406607 54.76413012 158.48162199 48.07617188 171.06640625 C46.33191043 174.35237484 44.64694493 177.66394836 43 181 C74.43436376 179.43796516 104.92176901 176.88030298 133.8125 163.41796875 C136.26304421 162.32783695 138.38543752 161.50330328 141 161 C140.38720428 166.37654654 138.58761193 170.83697724 136.47265625 175.7578125 C135.94918861 176.99602249 135.94918861 176.99602249 135.41514587 178.25924683 C134.30365688 180.88378421 133.1830653 183.50432698 132.0625 186.125 C131.31258365 187.89429087 130.5632288 189.66381984 129.81445312 191.43359375 C128.43950231 194.67471774 127.06433467 197.91573287 125.67993164 201.15283203 C125.40315079 201.80091827 125.12636993 202.44900452 124.84120178 203.11672974 C123.95301843 205.10518166 122.97394155 207.0521169 122 209 C74.48 209 26.96 209 -22 209 C-20.63118256 204.89354767 -19.45710716 201.70366621 -17.48046875 197.984375 C-16.96323242 197.00146484 -16.44599609 196.01855469 -15.91308594 195.00585938 C-15.34364258 193.93142578 -14.77419922 192.85699219 -14.1875 191.75 C-6.80366088 177.67838801 0.29688463 163.47090606 7.36254883 149.23730469 C11.46055963 140.99479728 15.6073854 132.78782259 19.921875 124.65625 C25.64389973 113.8684982 31.06958972 102.93666933 36.5 92 C42.81540382 79.28098254 49.20250985 66.61555518 55.85253906 54.06787109 C58.34982102 49.35212204 60.76158872 44.5966441 63.125 39.8125 C63.50914063 39.03970703 63.89328125 38.26691406 64.2890625 37.47070312 C65.1946936 35.64812054 66.09769254 33.82423031 67 32 C36.62272616 32.63512609 9.05506534 35.84711455 -19 48 C-18.29369444 42.8747068 -16.20789783 38.34461539 -14.21875 33.61328125 C-13.84520386 32.71506149 -13.47165771 31.81684174 -13.08679199 30.8914032 C-11.89547725 28.0299616 -10.69774014 25.17125713 -9.5 22.3125 C-8.69360584 20.37712165 -7.8876117 18.44157657 -7.08203125 16.50585938 C-5.60975876 12.97338564 -4.13691253 9.44116162 -2.65820312 5.91137695 C-2.36143677 5.2025386 -2.06467041 4.49370026 -1.75891113 3.76338196 C-1.21151215 2.49146296 -0.61926143 1.23852285 0 0 Z " fill="#000000" transform="translate(1321,449)"/>
<path d="M0 0 C40.92 0 81.84 0 124 0 C122.02196251 5.93411246 120.03125815 11.46884413 117.42578125 17.09765625 C116.9327375 18.17725868 116.9327375 18.17725868 116.42973328 19.27867126 C115.39494381 21.54194121 114.35385519 23.80224472 113.3125 26.0625 C112.60309389 27.611135 111.89410588 29.15996161 111.18554688 30.70898438 C109.46184723 34.47488414 107.73249815 38.23814037 106 42 C104.65881114 41.55351465 103.31767682 41.10686545 101.9765625 40.66015625 C101.15188477 40.38574707 100.32720703 40.11133789 99.47753906 39.82861328 C97.98320439 39.32883284 96.48999539 38.82564264 94.99902344 38.31591797 C80.64631304 33.41175967 67.21832217 32.08702301 52 31 C52 49.48 52 67.96 52 87 C73.78 87 95.56 87 118 87 C116.45406843 91.63779471 114.91735806 95.29414674 112.62890625 99.53515625 C112.30591049 100.13629745 111.98291473 100.73743866 111.65013123 101.35679626 C110.62533298 103.26111495 109.59389527 105.16174792 108.5625 107.0625 C107.87394066 108.34157716 107.18578596 109.62087224 106.49804688 110.90039062 C103.75481323 115.9901716 101.0121156 121.06247259 98 126 C90.86100657 125.20787868 84.11882652 123.19023007 77.24023438 121.171875 C68.45784692 118.75241917 61.61025996 118.60064125 52 118 C52 137.8 52 157.6 52 178 C52.99 177.67 53.98 177.34 55 177 C56.47832879 176.84335124 57.9613094 176.72854347 59.4453125 176.640625 C83.1629659 175.0383393 107.01679157 171.14539448 128.42578125 160.2578125 C131 159 131 159 134 159 C132.00856106 165.23259515 129.7445606 171.2957187 127.2421875 177.33984375 C126.8936673 178.18801163 126.54514709 179.0361795 126.18606567 179.91004944 C125.45632338 181.68450075 124.72517733 183.45837539 123.99267578 185.23168945 C122.86844308 187.95337382 121.74830534 190.67671512 120.62890625 193.40039062 C119.91690001 195.13030439 119.20466858 196.8601255 118.4921875 198.58984375 C118.15677948 199.40436508 117.82137146 200.21888641 117.47579956 201.05809021 C115.11830288 206.76339424 115.11830288 206.76339424 114 209 C76.38 209 38.76 209 0 209 C0.99 205.7 1.98 202.4 3 199 C5.55947302 188.29186878 6.43556975 178.08382142 6.37231445 167.06958008 C6.37475114 165.55138399 6.37847887 164.03318953 6.38337708 162.51499939 C6.39266757 158.44486761 6.3834633 154.37498131 6.37004495 150.30486894 C6.35860379 146.01620915 6.36284747 141.72755924 6.36479187 137.43888855 C6.3656706 130.24478211 6.35468074 123.05077066 6.33618164 115.85668945 C6.31499634 107.57118417 6.31151187 99.28581759 6.3177436 91.00029069 C6.32346135 82.98376903 6.31776484 74.96729558 6.30657005 66.95078087 C6.30195836 63.55918156 6.30103516 60.16761207 6.3031559 56.77601051 C6.30505607 52.77606051 6.29680384 48.77624931 6.2810955 44.77633095 C6.27689692 43.31919428 6.27597176 41.86204341 6.27878571 40.40490341 C6.29719629 29.15526606 5.80077505 17.97025226 1.875 7.3125 C0 2.1459854 0 2.1459854 0 0 Z " fill="#000000" transform="translate(1949,449)"/>
<path d="M0 0 C22.77 0 45.54 0 69 0 C69.495 5.445 69.495 5.445 70 11 C72.93998271 25.09002352 79.75099233 38.36559083 85.55703735 51.46202087 C88.43044553 57.94947277 91.21936215 64.47230989 94 71 C99.55807755 60.57245628 105.02696356 50.09942487 110.375 39.5625 C110.87418945 38.59376953 111.37337891 37.62503906 111.88769531 36.62695312 C118.080575 24.34141567 120.23836126 14.09310992 122 0 C143.12 0 164.24 0 186 0 C183.91128406 3.48119324 182.57930005 5.60987267 179.9375 8.375 C168.89516202 20.88354053 161.25298936 36.0864645 153.09425354 50.53585815 C149.60345796 56.7140887 146.05470132 62.85834724 142.5 69 C137.0179957 78.48653174 131.56242673 87.98787328 126.125 97.5 C125.77171631 98.11762207 125.41843262 98.73524414 125.05444336 99.37158203 C124.0591133 101.11195038 123.06469113 102.85283787 122.0703125 104.59375 C121.50070801 105.59083984 120.93110352 106.58792969 120.34423828 107.61523438 C118.06336323 111.66165419 117.86457059 113.99990494 117.83886719 118.70605469 C117.83390228 119.39586929 117.82893738 120.0856839 117.82382202 120.79640198 C117.80917345 123.08823643 117.80238855 125.38000132 117.796875 127.671875 C117.79111902 129.27215577 117.78536134 130.87243653 117.77960205 132.47271729 C117.76907983 135.83874838 117.76324739 139.20475555 117.75976562 142.57080078 C117.75432472 146.84725295 117.73039788 151.1233796 117.70179367 155.39973068 C117.68298585 158.71326553 117.67795183 162.02672548 117.67642975 165.34030914 C117.6734356 166.91409302 117.66551914 168.48787663 117.65224457 170.06160736 C117.54397384 183.90302775 119.99428038 195.64760127 124 209 C104.53 209 85.06 209 65 209 C65.67141017 205.64294916 66.26986595 203.0975577 67.4375 200 C72.37418098 185.38205274 71.67838457 169.38961742 71.86499023 154.1394043 C71.90483241 151.18906302 71.98106592 148.24323934 72.09057617 145.29467773 C72.80382541 125.60722581 70.96659807 111.28643582 59.59141541 94.40731812 C57.22731687 90.83116998 55.21573988 87.08530984 53.1875 83.3125 C52.39157394 81.8815581 51.59361236 80.45174517 50.79296875 79.0234375 C48.5709386 75.03756197 46.3709129 71.03979345 44.17578125 67.0390625 C40.1379314 59.68114407 36.07814155 52.33566159 32 45 C31.49903809 44.09668945 30.99807617 43.19337891 30.48193359 42.26269531 C22.81358777 28.51812483 13.73399885 16.60658869 2.8984375 5.20703125 C1 3 1 3 0 0 Z " fill="#000000" transform="translate(1635,212)"/>
<path d="M0 0 C41.58 0 83.16 0 126 0 C125.06625562 4.6687219 123.60034351 8.58192513 121.69140625 12.890625 C121.36462387 13.63584412 121.03784149 14.38106323 120.70115662 15.14886475 C120.01188132 16.71657013 119.32002061 18.28314103 118.62573242 19.84863281 C117.56153864 22.25217128 116.50984309 24.66091895 115.45898438 27.0703125 C114.78720562 28.59407967 114.11470468 30.11752871 113.44140625 31.640625 C113.12675919 32.36348694 112.81211212 33.08634888 112.4879303 33.83111572 C110.22944391 38.88527805 110.22944391 38.88527805 108 40 C105.1089836 38.97716381 102.28187699 37.88997623 99.4375 36.75 C83.6229329 30.7082118 69.3039446 29.86519723 52 29 C52 48.47 52 67.94 52 88 C73.78 88 95.56 88 118 88 C116.61554426 92.15336722 115.37402147 95.47197455 113.390625 99.265625 C112.88273438 100.23886719 112.37484375 101.21210938 111.8515625 102.21484375 C111.32304688 103.21644531 110.79453125 104.21804688 110.25 105.25 C109.73695313 106.23613281 109.22390625 107.22226562 108.6953125 108.23828125 C105.34383243 114.62967163 101.78426055 120.85522662 98 127 C97.29456055 126.82090088 96.58912109 126.64180176 95.86230469 126.45727539 C93.2821339 125.80482125 90.69901708 125.1648347 88.11523438 124.52685547 C86.60241849 124.15004837 85.09082883 123.76830444 83.58007812 123.38330078 C80.91000117 122.70372702 78.2365462 122.03876692 75.5625 121.375 C74.71792236 121.15690674 73.87334473 120.93881348 73.00317383 120.71411133 C68.04792623 119.49902965 63.2541972 118.78950216 58.15991211 118.43212891 C57.0024498 118.3491153 55.84498749 118.26610168 54.65245056 118.18057251 C53.77714188 118.12098358 52.90183319 118.06139465 52 118 C52.0851171 125.82488992 52.1802615 133.6495919 52.28752708 141.47420597 C52.33705702 145.10915018 52.38338289 148.74407121 52.421875 152.37915039 C52.45928491 155.90008865 52.50577827 159.42080931 52.55806351 162.94155693 C52.58508021 164.91018798 52.60315724 166.87893541 52.62094116 168.84767151 C52.85845453 183.67191261 55.21656489 195.64969466 60 210 C40.2 210 20.4 210 0 210 C0.99 207.03 1.98 204.06 3 201 C5.81523182 190.86775201 6.43843742 181.05550292 6.40405273 170.60986328 C6.4097712 169.01801072 6.4167411 167.42616225 6.42485046 165.83432007 C6.44263462 161.55315933 6.44164153 157.27220519 6.43590808 152.99101877 C6.43279453 149.39802512 6.43893258 145.80506993 6.44494683 142.21208179 C6.45894221 133.7261528 6.45747267 125.2403246 6.44604492 116.75439453 C6.4345701 108.04174949 6.4486401 99.32941252 6.4754414 90.61680806 C6.4976951 83.0969955 6.50421408 75.57727897 6.49836498 68.05743587 C6.49501705 63.58351496 6.4972647 59.10979136 6.51461601 54.63589859 C6.53023829 50.42492703 6.52596305 46.21440701 6.50731087 42.0034523 C6.50366672 40.4717822 6.506609 38.94007748 6.51719666 37.40843964 C6.58573553 26.66006741 5.02393876 17.33650985 2 7 C1.34 4.69 0.68 2.38 0 0 Z " fill="#000000" transform="translate(493,211)"/>
<path d="M0 0 C2.96404505 2.80804268 5.44499019 5.18315774 7 9 C5.68 9 4.36 9 3 9 C2.01 6.03 1.02 3.06 0 0 Z " fill="#A4D3EC" transform="translate(10,160)"/>
<path d="M0 0 C2.40785992 3.2104799 3.68197635 5.35008834 5 9 C4.01 9.33 3.02 9.66 2 10 C1.34 6.7 0.68 3.4 0 0 Z " fill="#A3D3EC" transform="translate(309,6)"/>
<path d="M0 0 C0.99 0.33 1.98 0.66 3 1 C2.67 4.3 2.34 7.6 2 11 C1.67 11 1.34 11 1 11 C0.67 7.37 0.34 3.74 0 0 Z " fill="#9ACFEA" transform="translate(333,514)"/>
<path d="M0 0 C2 1 2 1 2 1 Z " fill="#DBEBF7" transform="translate(445,436)"/>
<path d="M0 0 C2 1 2 1 2 1 Z " fill="#DAEBF6" transform="translate(643,166)"/>
<path d="" fill="#CFE4F4" transform="translate(0,0)"/>
<path d="" fill="#E1EEF8" transform="translate(0,0)"/>
<path d="" fill="#C8E1F2" transform="translate(0,0)"/>
</svg>
